# xmcd CD database file
#
# Track frame offsets:
#	150
#	21241
#	45971
#	61897
#	81058
#	107045
#	125279
#
# Disc length: 1915 seconds
#
# Revision: 0
# Processed by: cddbd v1.5.2PL0 Copyright (c) Steve Scherf et al.
# Submitted via: CDex 1.70beta2
#
DISCID=4c077907
DTITLE=The Kal Bergendahl Project - Love, Unconditional
DYEAR=2006
DGENRE=Jazz
TTITLE0=Love, Unconditional
TTITLE1=My Affection
TTITLE2=Judah
TTITLE3=All Right
TTITLE4=You Said
TTITLE5=A New Day
TTITLE6=Love, Unconditional [Instrumental]
EXTD=YEAR: 2006
EXTT0=
EXTT1=
EXTT2=
EXTT3=
EXTT4=
EXTT5=
EXTT6=
PLAYORDER=
